<svg xmlns="http://www.w3.org/2000/svg" viewBox="0 0 200 120" width="400" height="240">
  <!-- 外框容器 -->
  <g transform="translate(5,5)">
    
    <!-- 第一个图标容器 -->
    <g transform="translate(0,0)">
      <rect x="-2" y="0" width="95" height="100" 
            fill="none" stroke="#333" stroke-width="3"/>
      <g transform="scale(0.8) translate(5,5)">
        <svg viewBox="0 0 57 42" width="100" height="100">
          <path fill="#4D6BFE" d="M55.61 3.47c-.6-.3-.85.26-1.2.55-.12.09-.22.21-.32.32-.87.93-1.89 1.54-3.21 1.47-1.94-.11-3.6.5-5.07 1.99-.31-1.83-1.35-2.92-2.92-3.63-.82-.36-1.66-.73-2.23-1.52-.4-.56-.51-1.19-.71-1.81-.13-.37-.26-.76-.69-.82-.47-.07-.65.32-.83.65-.73 1.34-1.02 2.81-.99 4.31.06 3.36 1.48 6.04 4.3 7.94.32.22.4.44.3.76-.19.66-.42 1.29-.62 1.95-.13.42-.32.51-.77.33-1.55-.65-2.88-1.6-4.07-2.76-2-1.94-3.82-4.08-6.08-5.76-.53-.39-1.06-.76-1.61-1.1-2.31-2.24.3-4.08.91-4.3.63-.23.22-1.01-1.82-1-2.04.01-3.91.69-6.29 1.6-.35.14-.71.24-1.09.32-2.16-.41-4.41-.5-6.75-.24-4.41.49-7.94 2.58-10.53 6.14C.19 13.13-.54 18 .36 23.07c.94 5.35 3.67 9.78 7.87 13.24 4.35 3.59 9.36 5.35 15.08 5.01 3.47-.2 7.34-.66 11.7-4.35 1.1.55 2.25.77 4.17.93 1.47.14 2.89-.07 3.99-.3 1.72-.36 1.6-1.96.98-2.25-5.05-2.35-3.94-1.39-4.95-2.17 2.56-3.03 6.43-6.19 7.94-16.4.12-.81.02-1.32 0-1.98-.01-.4.08-.55.54-.6 1.26-.15 2.49-.49 3.62-1.11 3.27-1.79 4.59-4.72 4.9-8.24.05-.54-.01-1.09-.58-1.38zM27.12 35.12c-4.89-3.84-7.26-5.11-8.24-5.06-.92.05-.75 1.1-.55 1.79.21.67.49 1.14.87 1.73.27.39.45.97-.27 1.41-1.58.97-4.31-.33-4.44-.39-3.19-1.88-5.85-4.36-7.73-7.74-1.81-3.26-2.87-6.76-3.04-10.5-.05-.9.22-1.22 1.12-1.38 1.18-.22 2.4-.26 3.58-.09 5 .73 9.24 2.96 12.8 6.5 2.03 2.01 3.57 4.42 5.16 6.77 1.68 2.5 3.5 4.87 5.81 6.82.81.68 1.46 1.2 2.09 1.59-1.88.21-5.01.26-7.15-1.44zm2.34-15.08c0-.4.32-.72.72-.72.09 0 .17.02.25.05.1.04.19.09.27.17.13.13.2.31.2.5 0 .4-.32.72-.72.72s-.71-.32-.71-.72zm7.28 3.74c-.47.19-.93.36-1.38.37-.7.04-1.46-.25-1.87-.59-.64-.54-1.1-.84-1.29-1.78-.08-.4-.04-1.02.04-1.38.16-.76-.02-1.26-.56-1.7-.44-.36-1-.46-1.61-.46-.23 0-.44-.1-.6-.18-.26-.13-.47-.45-.27-.84.06-.13.38-.44.45-.49.83-.47 1.8-.32 2.68.04.82.34 1.45.96 2.34 1.83.92 1.06 1.08 1.35 1.6 2.14.41.62.79 1.26 1.04 1.99.16.45-.05.83-.59 1.06z"/>
        </svg>
      </g>
    </g>

    <!-- 第二个图标容器 -->
    <g transform="translate(100,0)">
      <rect x="-7" y="0" width="100" height="100"
            fill="none" stroke="#333" stroke-width="3"/>
      <g transform="scale(1) translate(10,)">
        <svg viewBox="350 80 721 721">
          <path d="M304.25 294.61V249.03c0-3.84 1.44-6.72 4.8-8.64l91.65-52.78c12.47-7.2 27.35-10.56 42.7-10.56 57.58 0 94.05 44.62 94.05 92.12 0 3.36 0 7.2-.48 11.04l-94.01-55.68c-5.76-3.36-11.52-3.36-17.28 0L304.25 294.61zm213.99 177.53V363.22c0-6.72-2.88-11.52-8.64-14.88L389.17 278.3l39.34-22.56c3.36-1.92 6.24-1.92 9.6 0l91.65 52.8c26.4 15.36 44.16 48 44.16 79.65 0 36.48-21.6 70.08-55.68 84zm-242.3-95.95l-39.34-23.04c-3.36-1.92-4.8-4.8-4.8-8.64V238.96c0-51.36 39.36-90.24 92.62-90.24 20.16 0 38.88 6.72 54.72 18.72l-94.51 54.72c-5.76 3.36-8.64 8.16-8.64 14.88v139.15zm84.69 48.94l-56.38-31.68v-67.17l56.38-31.68 56.38 31.68v67.17l-56.38 31.68zm36.23 145.87c-20.16 0-38.88-6.72-54.72-18.72l94.51-54.72c5.76-3.36 8.64-8.16 8.64-14.88V343.55l40.8 23.04c3.36 1.92 4.8 4.8 4.8 8.64v105.57c0 51.36-39.83 90.24-93.09 90.24zm-113.72-106.99l-91.65-52.8c-26.4-15.36-44.16-48-44.16-79.65 0-36.48 21.6-70.08 55.68-84v109.39c0 6.72 2.88 11.52 8.64 14.88l119.97 69.6-39.34 22.56c-3.36 1.92-6.24 1.92-9.6 0zm-5.28 78.69c-54.24 0-94.07-40.8-94.07-91.2 0-3.84.48-7.68.96-11.52l94.51 54.72c5.76 3.36 11.52 3.36 17.28 0l120.43-69.6v45.6c0 3.84-1.44 6.72-4.8 8.64l-91.65 52.8c-12.48 7.2-27.36 10.56-42.72 10.56zm118.97 57.1c58.08 0 106.56-41.28 117.6-96 53.74-13.92 88.29-64.32 88.29-115.68 0-33.6-14.4-66.24-40.32-89.76 2.4-9.6 3.84-19.68 3.84-29.76 0-68.64-55.68-120-119.97-120-12.96 0-25.44 1.92-37.92 5.76-21.6-21.12-51.36-34.56-83.99-34.56-58.08 0-106.56 41.28-117.6 96-53.74 13.92-88.29 64.32-88.29 115.68 0 33.6 14.4 66.24 40.32 89.76-2.4 9.6-3.84 19.68-3.84 29.76 0 68.64 55.68 120 119.97 120 12.96 0 25.44-1.92 37.92-5.76 21.6 21.12 51.36 34.56 83.99 34.56z" fill="black"/>
        </svg>
      </g>
    </g>

  </g>
</svg>